<svg width="196" height="80" viewBox="0 0 196 80" fill="none" xmlns="http://www.w3.org/2000/svg">
<path d="M18.184 79.048C13.4907 79.048 9.48 77.9813 6.152 75.848C2.824 73.7147 0.818667 70.0453 0.136001 64.84C0.0506671 64.4987 0.00800037 64.1573 0.00800037 63.816C0.00800037 63.4747 0.00800037 63.1333 0.00800037 62.792C0.00800037 59.8907 0.52 56.9467 1.544 53.96C2.65333 50.888 3.93333 47.9013 5.384 45C6.92 42.0987 8.24267 39.4533 9.352 37.064C8.584 36.9787 7.56 36.8933 6.28 36.808C5.08533 36.7227 3.976 36.424 2.952 35.912C2.01333 35.3147 1.544 34.4187 1.544 33.224C1.544 32.7973 1.71467 32.4987 2.056 32.328C2.48267 32.1573 2.90933 32.072 3.336 32.072C3.848 32.072 4.36 32.1147 4.872 32.2C5.384 32.2853 5.768 32.328 6.024 32.328C8.41333 32.328 10.5893 31.56 12.552 30.024C14.6 28.4027 16.4773 26.44 18.184 24.136C19.8907 21.832 21.4693 19.528 22.92 17.224C24.3707 14.8347 25.736 12.8293 27.016 11.208C26.76 10.6107 26.4187 10.312 25.992 10.312C25.5653 10.2267 25.1813 10.0987 24.84 9.92799C24.4987 9.672 24.2427 9.032 24.072 8.008C23.9013 6.64266 24.6267 5.53333 26.248 4.68C27.8693 3.82666 30.0027 3.14399 32.648 2.632C35.2933 2.12 38.1093 1.736 41.096 1.48C44.168 1.22399 47.0267 1.09599 49.672 1.09599C52.4027 1.01066 54.5787 0.967995 56.2 0.967995C59.4427 0.967995 62.728 1.01066 66.056 1.09599C69.384 1.18133 72.712 1.52266 76.04 2.12C77.4053 2.46133 78.344 3.016 78.856 3.784C79.4533 4.552 79.752 5.27733 79.752 5.96C79.752 6.55733 79.5387 7.11199 79.112 7.62399C78.7707 8.05066 78.344 8.264 77.832 8.264C76.9787 8.264 76.2533 7.66667 75.656 6.472C74.2907 5.87466 72.584 5.576 70.536 5.576C68.5733 5.49066 66.9093 5.448 65.544 5.448C64.264 5.448 62.3867 5.53333 59.912 5.70399C57.4373 5.78933 54.792 5.95999 51.976 6.216C49.2453 6.38667 46.728 6.68533 44.424 7.112C42.2053 7.53867 40.6267 8.09333 39.688 8.77599C38.8347 9.288 37.5547 10.4827 35.848 12.36C34.2267 14.152 32.4773 16.2 30.6 18.504C28.7227 20.808 26.9733 22.984 25.352 25.032C23.7307 27.08 22.536 28.616 21.768 29.64C26.7173 29.7253 31.624 29.5547 36.488 29.128C41.352 28.7013 46.2587 28.488 51.208 28.488H55.944C57.48 28.488 59.016 28.5307 60.552 28.616C62.1733 28.616 63.752 28.7013 65.288 28.872C66.312 28.9573 66.824 29.1707 66.824 29.512C66.824 29.768 66.4827 30.0667 65.8 30.408C65.1173 30.7493 64.392 31.048 63.624 31.304C62.9413 31.56 62.4293 31.7307 62.088 31.816C57.224 32.584 52.1467 33.0107 46.856 33.096C41.5653 33.1813 36.3173 33.4373 31.112 33.864C25.992 34.2053 21.128 35.3573 16.52 37.32C16.1787 38.088 15.4533 39.4533 14.344 41.416C13.32 43.3787 12.2107 45.64 11.016 48.2C9.82133 50.76 8.75467 53.4053 7.816 56.136C6.96267 58.8667 6.536 61.4693 6.536 63.944C6.536 66.8453 7.38933 69.2773 9.096 71.24C10.888 73.1173 14.0453 74.056 18.568 74.056C22.408 74.056 26.76 73.4587 31.624 72.264C36.488 71.0693 41.4373 69.576 46.472 67.784C51.5067 65.9067 56.2427 63.944 60.68 61.896C65.2027 59.848 69.0427 57.928 72.2 56.136C72.712 55.88 73.0533 55.752 73.224 55.752C73.48 55.752 73.608 55.9227 73.608 56.264C73.608 56.6907 73.4373 57.1173 73.096 57.544C71.7307 59.5067 69.384 61.512 66.056 63.56C62.8133 65.608 59.016 67.5707 54.664 69.448C50.312 71.24 45.832 72.8613 41.224 74.312C36.7013 75.7627 32.392 76.9147 28.296 77.768C24.2 78.6213 20.8293 79.048 18.184 79.048ZM96.887 79.048C92.9617 79.048 90.231 77.768 88.695 75.208C87.159 72.648 86.391 69.5333 86.391 65.864C86.391 63.816 86.5617 61.7253 86.903 59.592C87.2443 57.3733 87.671 55.1973 88.183 53.064C87.159 53.6613 85.9217 54.6 84.471 55.88C83.0203 57.16 81.3563 58.7813 79.479 60.744C78.0283 63.6453 76.7483 66.4613 75.639 69.192C74.5297 71.8373 73.2923 74.2693 71.927 76.488C71.671 76.8293 71.3297 77.0427 70.903 77.128C70.4763 77.2133 70.0497 77.256 69.623 77.256C67.831 77.256 66.935 76.4453 66.935 74.824C66.935 72.9467 67.8737 71.1547 69.751 69.448L78.967 53.064C78.199 53.6613 77.4737 54.3013 76.791 54.984C76.1083 55.6667 75.3403 56.392 74.487 57.16C74.1457 57.5013 73.7617 57.672 73.335 57.672C72.9937 57.672 72.823 57.5013 72.823 57.16C72.823 56.8187 73.0363 56.3493 73.463 55.752C75.4257 53.2773 77.815 50.5467 80.631 47.56C83.5323 44.488 86.6897 40.3493 90.103 35.144C91.2123 33.4373 92.791 31.304 94.839 28.744C96.887 26.184 99.1057 23.4533 101.495 20.552C103.97 17.6507 106.444 14.92 108.919 12.36C111.394 9.71467 113.57 7.496 115.447 5.70399C116.386 4.93599 117.196 4.296 117.879 3.784C118.562 3.272 119.074 2.97333 119.415 2.88799C120.183 2.88799 120.908 3.31466 121.591 4.168C122.274 5.02133 122.658 5.91733 122.743 6.856C122.743 7.79467 122.402 8.43466 121.719 8.77599C120.695 9.62933 119.714 10.3973 118.775 11.08C117.922 11.7627 117.026 12.5307 116.087 13.384C113.783 15.432 111.223 17.9493 108.407 20.936C105.591 23.9227 102.732 27.1227 99.831 30.536C97.015 33.9493 94.2843 37.4053 91.639 40.904C89.079 44.3173 86.8177 47.56 84.855 50.632C85.0257 50.8027 85.1963 50.888 85.367 50.888C85.623 50.888 85.9217 50.76 86.263 50.504C86.6897 50.1627 87.2017 49.736 87.799 49.224C90.7857 46.664 94.0283 44.0613 97.527 41.416C101.026 38.6853 104.396 36.2107 107.639 33.992C108.578 33.3947 109.516 32.8827 110.455 32.456C111.479 31.944 112.546 31.688 113.655 31.688C114.338 31.688 114.978 31.816 115.575 32.072C116.258 32.2427 116.77 32.584 117.111 33.096C117.964 33.352 118.775 33.7787 119.543 34.376C120.396 34.9733 120.823 35.784 120.823 36.808C120.823 38.088 120.183 39.3253 118.903 40.52C117.623 41.6293 116.514 42.5253 115.575 43.208C112.674 45.0853 109.26 46.7067 105.335 48.072C101.495 49.352 97.7403 50.3333 94.071 51.016C93.4737 53.6613 92.919 56.392 92.407 59.208C91.9803 61.9387 91.767 64.456 91.767 66.76C91.767 69.1493 92.0657 71.112 92.663 72.648C93.2603 74.184 94.3697 74.952 95.991 74.952C96.9297 74.952 98.0817 74.5253 99.447 73.672C100.898 72.7333 102.348 71.6667 103.799 70.472C105.335 69.192 106.7 67.9547 107.895 66.76C109.175 65.5653 110.156 64.6693 110.839 64.072C111.607 63.3893 112.716 62.3653 114.167 61C115.618 59.6347 117.026 58.2693 118.391 56.904C119.842 55.5387 120.823 54.5573 121.335 53.96C121.42 53.8747 121.548 53.832 121.719 53.832C122.146 53.832 122.359 54.1307 122.359 54.728C122.359 55.4107 121.847 56.3067 120.823 57.416L118.647 59.848C115.148 63.7733 111.692 67.528 108.279 71.112C104.951 74.6107 102.007 77.0427 99.447 78.408C98.5937 78.8347 97.7403 79.048 96.887 79.048ZM94.967 47.688C95.9057 47.5173 97.3563 47.1333 99.319 46.536C101.282 45.9387 103.287 45.1707 105.335 44.232C107.468 43.2933 109.303 42.312 110.839 41.288C112.46 40.1787 113.399 39.0693 113.655 37.96C113.399 37.3627 112.93 37.064 112.247 37.064C111.65 37.064 110.54 37.5333 108.919 38.472C107.298 39.3253 105.548 40.392 103.671 41.672C101.794 42.8667 100.044 44.0613 98.423 45.256C96.8017 46.3653 95.6497 47.176 94.967 47.688ZM140.065 78.152C139.297 78.152 138.401 77.8107 137.377 77.128C136.438 76.4453 135.628 75.6773 134.945 74.824C134.262 73.8853 133.921 73.032 133.921 72.264C133.921 70.984 134.39 69.2773 135.329 67.144C136.268 64.9253 137.334 62.7493 138.529 60.616C139.809 58.4827 140.79 56.904 141.473 55.88C140.278 56.904 138.742 58.568 136.865 60.872C135.073 63.0907 133.11 65.48 130.977 68.04C128.929 70.5147 126.924 72.648 124.961 74.44C123.084 76.232 121.462 77.128 120.097 77.128C118.22 77.128 116.684 76.488 115.489 75.208C114.38 73.8427 113.825 72.2213 113.825 70.344C113.825 67.784 114.55 65.0533 116.001 62.152C117.452 59.1653 119.329 56.3067 121.633 53.576C124.022 50.76 126.582 48.2 129.313 45.896C132.129 43.592 134.86 41.7573 137.505 40.392C140.236 39.0267 142.668 38.344 144.801 38.344C147.105 38.344 148.982 38.8987 150.433 40.008C151.884 41.032 152.609 42.6107 152.609 44.744C152.609 45.0853 152.524 45.7253 152.353 46.664C152.268 47.6027 151.969 48.072 151.457 48.072C151.201 48.072 150.774 47.688 150.177 46.92C149.665 46.152 148.94 45.384 148.001 44.616C147.062 43.848 145.868 43.464 144.417 43.464C142.028 43.464 139.51 44.36 136.865 46.152C134.305 47.8587 131.83 50.0773 129.441 52.808C127.052 55.4533 124.961 58.184 123.169 61C121.377 63.816 120.012 66.248 119.073 68.296C118.817 68.8933 118.561 69.5333 118.305 70.216C118.134 70.8987 118.049 71.5813 118.049 72.264C118.049 73.032 118.262 73.416 118.689 73.416C119.116 73.416 120.012 72.9467 121.377 72.008C122.828 71.0693 123.852 70.3867 124.449 69.96C127.436 67.8267 130.252 65.3947 132.897 62.664C135.628 59.9333 138.06 57.1173 140.193 54.216C140.876 53.2773 141.516 52.3387 142.113 51.4C142.71 50.4613 143.308 49.5653 143.905 48.712C144.332 48.1147 144.758 47.816 145.185 47.816C146.124 47.816 147.02 48.456 147.873 49.736C148.812 51.016 149.281 52.1253 149.281 53.064C149.281 53.4907 149.196 53.7467 149.025 53.832C148.94 53.9173 148.684 54.1733 148.257 54.6C146.977 55.88 145.697 57.672 144.417 59.976C143.222 62.28 142.156 64.6267 141.217 67.016C140.364 69.32 139.724 71.2827 139.297 72.904C139.212 73.16 139.126 73.5013 139.041 73.928C139.041 74.2693 139.254 74.3973 139.681 74.312C140.534 74.056 141.9 73.1173 143.777 71.496C145.74 69.7893 147.83 67.8693 150.049 65.736C152.353 63.5173 154.401 61.4693 156.193 59.592C158.07 57.7147 159.308 56.392 159.905 55.624C160.076 55.4533 160.246 55.2827 160.417 55.112C160.673 54.856 160.929 54.728 161.185 54.728C161.782 54.728 162.081 55.0267 162.081 55.624C162.081 55.9653 161.398 56.9893 160.033 58.696C158.668 60.3173 156.961 62.2373 154.913 64.456C152.865 66.5893 150.774 68.7227 148.641 70.856C146.508 72.904 144.63 74.6533 143.009 76.104C141.473 77.4693 140.492 78.152 140.065 78.152ZM171.483 78.536C170.118 78.536 168.667 77.8533 167.131 76.488C165.68 75.0373 164.955 73.6293 164.955 72.264C164.955 70.5573 165.552 68.6373 166.747 66.504C167.942 64.2853 169.35 62.152 170.971 60.104C172.592 58.056 174 56.3067 175.195 54.856C176.39 53.32 176.987 52.296 176.987 51.784V51.528C176.219 50.8453 175.494 50.2053 174.811 49.608C174.128 48.9253 173.19 48.584 171.995 48.584C171.142 48.584 170.032 49.096 168.667 50.12C167.387 51.144 166.064 52.3387 164.699 53.704C163.334 55.0693 162.096 56.3493 160.987 57.544C159.878 58.7387 159.067 59.5493 158.555 59.976C158.214 60.3173 157.872 60.5307 157.531 60.616C157.275 60.7013 157.062 60.744 156.891 60.744C156.55 60.744 156.379 60.5733 156.379 60.232C156.379 59.8907 156.55 59.5493 156.891 59.208C158.256 57.416 159.835 55.5813 161.627 53.704C163.419 51.8267 165.04 50.12 166.491 48.584C167.942 46.9627 168.795 45.8107 169.051 45.128C169.734 43.1653 170.416 41.416 171.099 39.88C171.867 38.344 173.062 36.8933 174.683 35.528C175.366 34.8453 176.176 34.2907 177.115 33.864C178.054 33.4373 178.992 33.224 179.931 33.224C180.784 33.224 181.467 33.48 181.979 33.992C182.576 34.4187 182.875 35.1013 182.875 36.04C182.875 37.064 182.406 38.088 181.467 39.112C180.614 40.136 179.59 41.1173 178.395 42.056C177.2 42.9093 176.134 43.6773 175.195 44.36C174.342 45.0427 173.958 45.5973 174.043 46.024C174.555 46.3653 175.536 46.792 176.987 47.304C178.523 47.816 179.59 48.072 180.187 48.072C180.87 48.072 181.51 47.944 182.107 47.688C182.704 47.432 183.302 47.304 183.899 47.304C184.752 47.304 185.606 47.56 186.459 48.072C187.312 48.584 187.739 49.352 187.739 50.376C187.739 51.2293 187.398 52.04 186.715 52.808C186.118 53.4907 185.478 54.088 184.795 54.6C183.771 55.368 182.406 56.52 180.699 58.056C178.992 59.592 177.243 61.2987 175.451 63.176C173.744 65.0533 172.251 66.9307 170.971 68.808C169.776 70.6 169.179 72.1787 169.179 73.544C169.179 73.8853 169.264 74.2267 169.435 74.568C169.52 74.6533 169.691 74.696 169.947 74.696C171.654 74.696 173.574 73.928 175.707 72.392C177.84 70.856 179.974 68.9787 182.107 66.76C184.326 64.5413 186.374 62.3653 188.251 60.232C190.214 58.0133 191.878 56.3067 193.243 55.112C193.414 54.9413 193.627 54.7707 193.883 54.6C194.139 54.4293 194.395 54.344 194.651 54.344C195.078 54.344 195.291 54.6427 195.291 55.24C195.291 55.5813 194.694 56.4347 193.499 57.8C192.39 59.1653 190.939 60.7867 189.147 62.664C187.355 64.5413 185.478 66.4613 183.515 68.424C181.638 70.3867 179.888 72.136 178.267 73.672C176.646 75.1227 175.494 76.1467 174.811 76.744C173.872 77.512 173.19 77.9813 172.763 78.152C172.336 78.408 171.91 78.536 171.483 78.536Z" fill="black" fill-opacity="0.5"/>
</svg>
